<?xml version="1.0" standalone="no"?>
<!DOCTYPE svg PUBLIC "-//W3C//DTD SVG 20010904//EN"
 "http://www.w3.org/TR/2001/REC-SVG-20010904/DTD/svg10.dtd">
<svg version="1.0" xmlns="http://www.w3.org/2000/svg"
 width="256.000000pt" height="256.000000pt" viewBox="0 0 256.000000 256.000000"
 preserveAspectRatio="xMidYMid meet">

<g transform="translate(0.000000,256.000000) scale(0.100000,-0.100000)"
fill="#01d277" stroke="none">
<path d="M1503 2338 l-223 -222 -128 127 c-137 136 -157 146 -200 107 -14 -13
-22 -33 -22 -53 0 -27 20 -52 158 -189 143 -143 161 -158 192 -158 32 0 55 20
287 253 226 226 253 256 253 285 0 39 -30 72 -67 72 -22 0 -70 -43 -250 -222z"/>
<path d="M292 1854 c-35 -18 -63 -41 -85 -72 l-32 -47 -3 -685 c-3 -775 -6
-738 74 -809 31 -27 61 -43 95 -50 29 -6 170 -11 332 -11 l282 0 -35 -21 c-62
-37 -140 -123 -140 -154 0 -3 225 -5 500 -5 275 0 500 3 500 7 0 3 -11 25 -24
47 -24 41 -64 77 -121 108 -29 16 -16 17 280 20 342 3 351 5 412 68 66 67 64
43 61 802 l-3 686 -30 44 c-20 28 -49 52 -84 71 l-55 27 -936 0 -936 0 -52
-26z m1902 -170 c9 -8 18 -25 21 -37 3 -12 4 -228 3 -479 -3 -423 -4 -459 -21
-475 -17 -17 -67 -18 -917 -18 -850 0 -900 1 -917 18 -17 16 -18 50 -18 491 0
452 1 475 19 495 l19 21 898 0 c802 0 899 -2 913 -16z m-323 -1174 c29 -16 51
-67 44 -101 -15 -67 -109 -93 -159 -43 -74 75 20 194 115 144z m334 -15 c56
-56 18 -155 -60 -155 -49 0 -74 15 -91 56 -12 29 -12 39 0 68 17 41 39 55 89
56 27 0 45 -7 62 -25z"/>
<path d="M1125 1607 c-118 -40 -216 -125 -266 -232 -116 -247 43 -541 316
-588 179 -31 362 68 446 239 32 65 34 75 34 174 0 97 -2 110 -32 172 -44 93
-109 160 -201 205 -67 33 -84 37 -166 40 -56 2 -106 -2 -131 -10z m160 -287
c72 -57 134 -106 138 -110 8 -7 -283 -250 -298 -250 -3 0 -5 111 -5 247 0 233
1 245 18 231 9 -8 76 -61 147 -118z"/>
</g>
</svg>
